/* XPM */
static char *xx[] = {
/* columns rows colors chars-per-pixel */
"32 32 182 2 ",
"   c #130F2E",
".  c #13102E",
"X  c #14102F",
"o  c #14112F",
"O  c #141130",
"+  c #151130",
"@  c #151230",
"#  c #151330",
"$  c #151231",
"%  c #161231",
"&  c #161331",
"*  c #161332",
"=  c #171332",
"-  c #161431",
";  c #171432",
":  c #181533",
">  c #181633",
",  c #191634",
"<  c #1A1735",
"1  c #1A1835",
"2  c #1A1836",
"3  c #1B1936",
"4  c #1B1937",
"5  c #1B1A37",
"6  c #1C1A37",
"7  c #1D1B39",
"8  c #1D1C39",
"9  c #1E1C3A",
"0  c #1F1E3B",
"q  c #201E3C",
"w  c #201F3C",
"e  c #201F3D",
"r  c #20203D",
"t  c #21203D",
"y  c #21213E",
"u  c #22213E",
"i  c #22223F",
"p  c #232340",
"a  c #242441",
"s  c #242541",
"d  c #252542",
"f  c #252642",
"g  c #262642",
"h  c #262643",
"j  c #272744",
"k  c #272844",
"l  c #272845",
"z  c #282845",
"x  c #282945",
"c  c #282946",
"v  c #292A46",
"b  c #2A2B47",
"n  c #2B2D49",
"m  c #2C2E4A",
"M  c #2D2E4A",
"N  c #2E304C",
"B  c #2F314D",
"V  c #30334D",
"C  c #30334E",
"Z  c #31334F",
"A  c #31344F",
"S  c #323651",
"D  c #333651",
"F  c #333751",
"G  c #333652",
"H  c #333752",
"J  c #343853",
"K  c #353853",
"L  c #353953",
"P  c #363955",
"I  c #383C57",
"U  c #393D57",
"Y  c #393C58",
"T  c #393D58",
"R  c #393E58",
"E  c #3A3F59",
"W  c #3B3F5A",
"Q  c #3B405A",
"!  c #3D425C",
"~  c #3E435D",
"^  c #3F445E",
"/  c #3F455F",
"(  c #40455F",
")  c #414761",
"_  c #424861",
"`  c #424962",
"'  c #434963",
"]  c #444A64",
"[  c #444B64",
"{  c #454C65",
"}  c #464D66",
"|  c #474E67",
" . c #485068",
".. c #495069",
"X. c #495169",
"o. c #49516A",
"O. c #4A516A",
"+. c #4A536B",
"@. c #4B536B",
"#. c #4B536C",
"$. c #4C556D",
"%. c #4D556E",
"&. c #4D566E",
"*. c #4E566E",
"=. c #4E576F",
"-. c #4F5770",
";. c #4F5870",
":. c #505871",
">. c #505971",
",. c #515A72",
"<. c #525C74",
"1. c #535C74",
"2. c #555F77",
"3. c #556077",
"4. c #566077",
"5. c #576178",
"6. c #576179",
"7. c #59637A",
"8. c #59647B",
"9. c #5B667E",
"0. c #5B677E",
"q. c #5C677E",
"w. c #5C687E",
"e. c #5C687F",
"r. c #5D687F",
"t. c #5D6980",
"y. c #5D6A80",
"u. c #5E6A80",
"i. c #5E6A81",
"p. c #5E6B81",
"a. c #5F6B81",
"s. c #5F6C82",
"d. c #626E84",
"f. c #626F85",
"g. c #636F86",
"h. c #637086",
"j. c #637187",
"k. c #647187",
"l. c #657188",
"z. c #657288",
"x. c #657289",
"c. c #66748A",
"v. c #67758B",
"b. c #6A798E",
"n. c #6C7B90",
"m. c #6D7C91",
"M. c #6E7D92",
"N. c #6F7E93",
"B. c #707F94",
"V. c #718095",
"C. c #718096",
"Z. c #718196",
"A. c #728297",
"S. c #728397",
"D. c #738398",
"F. c #738498",
"G. c #738499",
"H. c #748599",
"J. c #75869A",
"K. c #75869B",
"L. c #75879B",
"P. c #76879B",
"I. c #76879C",
"U. c #798A9D",
"Y. c #788A9E",
"T. c #798A9E",
"R. c #7A8C9F",
"E. c #7C8EA2",
"W. c #7C8FA3",
"Q. c #7E90A3",
"!. c #7F92A6",
"~. c #8094A7",
"^. c #8195A8",
"/. c #8396AA",
"(. c #879BAD",
"). c #8BA0B3",
"_. c #8BA1B3",
"`. c #97AFBF",
"'. c #9EB7C7",
"]. c #A0BBCA",
"[. c #A2BCCB",
"{. c None",
/* pixels */
"{.{.{.{.{.{.{.{.{.{.{.{.{.{.{.{.{.{.{.{.{.{.{.{.{.{.{.{.{.{.{.{.",
"{.{.{.{.{.{.{.{.{.{.{.{.{.{.{.{.{.{.{.{.{.{.{.{.{.{.{.{.{.{.{.{.",
"{.{.{.{.{.{.{.{.{.{.{.m.{.{.{.{.{.{.{.{.{.{.{.{.{.{.{.{.{.{.{.{.",
"{.{.{.{.{.{.{.{.{.{.U i H r.{.{.{.{.{.{.!.0.L.{.{.{.{.{.{.{.{.{.",
"{.{.{.{.{.{.{.{.{.$.> + + M L.{.{.{.{.m.P t V m.{.{.{.{.{.{.{.{.",
"{.{.{.{.{.{.{.{.F.V + + + o ` {.{.{.I.z + - - R {.{.{.{.{.{.{.{.",
"{.{.{.{.{.{.{.{.q.d + + + + t E.{.{.! + + + + z {.{.{.{.{.{.{.{.",
"{.{.{.{.{.{.{.{.6.d + + - + - j.{.A.t o - + o z {.{.{.{.{.{.{.{.",
"{.{.L.j.7./.{.{.g.z + + + - + u.{.>.- + + + + Z {.{.{.[.'.{.{.{.",
"{.(.( 0 t ` L.{.E.H + + + + , m.{.! o + - + - } {.{.D.6.$.m.{.{.",
"{.g.2 + + > ^ !.].6., + + + d /.{.R . + + + t +.{.x.z , - z L.{.",
"{.;.+ + - + 2 d.{.E.H > + , >.{.{. .+ + + , } _.T.H + + + + >.{.",
"{.1.+ + + + + R {.{.b.` Z ;.(.{.{.r.d - 2 Q {.{.u.6 + + + + } {.",
"{.g.2 + + - o l m.{.{.{.{.{.{.{.{.{.6.$.u.{.{.{.R - + - + + #.{.",
"{.8.d + + + + t A.{.{.{.{.{.{.{.{.{.{.{.{.{.{.{.b + + + o > u.{.",
"{.{.` + + - + w B.{.{.{.{.{.{.{.{.{.{.{.{.{.{.A.p + + + o z ~.{.",
"{.{.T.M + o + z {.{.{.{.{.m.+.U +.I.'.{.{.{.{.F.d o + + 2 $.{.{.",
"{.{.{.k.Z 7 w ;.{.{.{.{.$.0 . .   t 1.E.{.{.{.{.H o + > Q {.{.{.",
"{.{.{.{.u.u.r.R.{.{.{.+.2 + o - + + 2 +.L.{.{.{.3.N d ` T.{.{.{.",
"{.{.{.{.{.{.{.{.{.{.[ 2 + + o - + + + , ^ A.{.{.{.Q.Q.{.{.{.{.{.",
"{.{.{.{.{.{.{.{.{.Q , + o - o o + + - + - H F.{.{.{.{.{.{.{.{.{.",
"{.{.{.{.{.{.{.{.P - + + o - o - - + + + + - d c.{.{.{.{.{.{.{.{.",
"{.{.{.{.{.{.{.! - + + - o o - + + + + + + - + j F.{.{.{.{.{.{.{.",
"{.{.{.{.{.{.v.7 + + + + - + o o + - + - + + + + } {.{.{.{.{.{.{.",
"{.{.{.{.{.{.$.+ + + + + + - + - + + + - + + + o H {.{.{.{.{.{.{.",
"{.{.{.{.{.{.$.+ - + - + + + + o + - + + - + + o J {.{.{.{.{.{.{.",
"{.{.{.{.{.{.x.2 + + + + - o + o - o - + + + + - +.{.{.{.{.{.{.{.",
"{.{.{.{.{.{._.Q > + + + + - 2 0 2 - + + + + + n L.{.{.{.{.{.{.{.",
"{.{.{.{.{.{.{.A.! 0 - + 0 P 8.$.u.) d 2 > 2 V d.{.{.{.{.{.{.{.{.",
"{.{.{.{.{.{.{.{.{.0.#.+.g.E.{.{.{.{.x.u.1.q.{.{.{.{.{.{.{.{.{.{.",
"{.{.{.{.{.{.{.{.{.{.{.{.{.{.{.{.{.{.{.{.{.{.{.{.{.{.{.{.{.{.{.{.",
"{.{.{.{.{.{.{.{.{.{.{.{.{.{.{.{.{.{.{.{.{.{.{.{.{.{.{.{.{.{.{.{."
};
