/* XPM */
static char *catcalc[] = {
/* columns rows colors chars-per-pixel */
"32 32 117 2 ",
"   c #151712143032",
".  c #1784150132E1",
"X  c #17B8153F331A",
"o  c #195D173B34EC",
"O  c #1B8919D93753",
"+  c #1BB51A0E3783",
"@  c #1C491AC03827",
"#  c #1D5B1C0A3956",
"$  c #1FED1F243C2E",
"%  c #225322063ED4",
"&  c #235D23473FFA",
"*  c #257425CB4249",
"=  c #274928014450",
"-  c #297D2AA846BF",
";  c #2AD72C4A483E",
":  c #2CAF2E824A48",
">  c #2DD12FE04B89",
",  c #30DC338B4EE6",
"<  c #314534094F5A",
"1  c #352E38BF53AD",
"2  c #38A03CE6577C",
"3  c #39AC3E2958A4",
"4  c #3BE340D45B17",
"5  c #3F9E45535F37",
"6  c #41BC47E0618E",
"7  c #41E5481161BB",
"8  c #44794B2C6495",
"9  c #44E64BB1650E",
"0  c #4883500A690C",
"q  c #4A89527B6B49",
"w  c #4BDF54176CC3",
"e  c #4C2D54756D19",
"r  c #4E89574D6FB5",
"t  c #51FA5B727383",
"y  c #55715F9F7758",
"u  c #57E8624179AE",
"i  c #58BC63977AFC",
"p  c #591D640B7B67",
"a  c #5BBD67367E4E",
"s  c #5C7268107F16",
"d  c #5EFE6B2181E7",
"f  c #602C6BA7822C",
"g  c #61586CDD833D",
"h  c #661773AF89C0",
"j  c #68BC764C8C04",
"k  c #68B376D48CA2",
"l  c #6C067AD59050",
"z  c #6D267C30918E",
"x  c #70C57ED59394",
"c  c #70E8808D9585",
"v  c #739D82C2974C",
"b  c #749683B6981F",
"n  c #76F784D198BA",
"m  c #791389019CF4",
"M  c #796089B39DAB",
"N  c #7BEA8B789EFD",
"B  c #7D088D5FA0DE",
"V  c #806C914CA46E",
"C  c #856895EEA85C",
"Z  c #863B989BAB35",
"A  c #894E9B4CAD71",
"S  c #8A2A9BBEADB7",
"D  c #8B539DAEAF9D",
"F  c #8D459F4BB0ED",
"G  c #91BDA3F2B507",
"H  c #9217A431B536",
"J  c #9759A8D8B915",
"K  c #96FFA8F8B954",
"L  c #9AB3AD16BD06",
"P  c #9CC4AF40BEF0",
"I  c #9DFCB188C138",
"U  c #A1B3B354C23E",
"Y  c #A227B4A5C3A1",
"T  c #A41EB75AC632",
"R  c #A6DBB884C6C3",
"E  c #A74DB904C738",
"W  c #ACACBD42CA97",
"Q  c #AFBBC197CEB7",
"!  c #B265C507D1EC",
"~  c #B762C969D590",
"^  c #B9C0CB47D70C",
"/  c #BC05CD9ED91A",
"(  c #BDC4D017DB74",
")  c #BF01D0CFDBEF",
"_  c #BF63D1FDDD2F",
"`  c #C25ED48EDF4E",
"'  c #C557D5EFE00F",
"]  c #C6E2D6CAE09C",
"[  c #C698D8A9E2D6",
"{  c #C844D955E326",
"}  c #C7C0DAEBE51D",
"|  c #CA20DC7FE643",
" . c #CF8FDEEFE78B",
".. c #CE76E03AE956",
"X. c #D397E1E6E9D3",
"o. c #D464E34EEB38",
"O. c #D33CE57AEE0A",
"+. c #D811E5DFED23",
"@. c #DA51E783EE65",
"#. c #DC4FE988F028",
"$. c #DCF1E9AAF022",
"%. c #DD5CEA5EF0D3",
"&. c #DFD4ECA6F2C2",
"*. c #E1F0ED76F31A",
"=. c #E2D9EE96F424",
"-. c #E4AEEFA9F4DD",
";. c #E77AF128F5CD",
":. c #E9FBF2BCF6EA",
">. c #EC7AF46FF82B",
",. c #EDE1F529F89D",
"<. c #F18FF759FA18",
"1. c #F422F8EFFB32",
"2. c #F5EAF9FEFBEB",
"3. c #F811FB47FCCB",
"4. c #F934FBEFFD3A",
"5. c #FB1CFD18FE07",
"6. c #FFFDFFFEFFFE",
/* pixels */
"6.6.6.6.6.6.6.6.6.6.6.6.6.6.6.6.6.6.6.6.6.6.6.6.6.6.6.6.6.6.6.6.",
"6.6.6.6.6.6.6.6.6.6.6.6.6.6.6.6.6.6.6.6.6.6.6.6.6.6.6.6.6.6.6.6.",
"6.6.6.6.6.6.6.6.6.6.$.! ( <.6.6.6.6.6.6.6.6.6.6.6.6.6.6.6.6.6.6.",
"6.6.6.6.6.6.6.6.6.X.q X # B :.6.6.6.6.5.%.~ ' <.6.6.6.6.6.6.6.6.",
"6.6.6.6.6.6.6.6.4.b       + H 4.6.6.4.! 5 O % B <.6.6.6.6.6.6.6.",
"6.6.6.6.6.6.6.6.%.1         < o.6.6./ :       O ` 6.6.6.6.6.6.6.",
"6.6.6.6.6.6.6.6.| o           A 6.;.y           D 6.6.6.6.6.6.6.",
"6.6.6.6.6.6.6.6.}             y ,.! o           Z 6.6.6.6.6.6.6.",
"6.6.#.U E %.6.6.| o           e *.c             K 6.6.4.2.6.6.6.",
"6.@.q     5 ! 5.%.1           s *.e           # ..5. .M d G ;.6.",
"6.H         > [ 1.j           V =.9           p :.) 2     . C 4.",
"4.z           a ,.` ;       - [ >.r         % ~ %.9         4 *.",
"4.l           O [ 3.Y <   & L 2.5.D       @ F 1.F           % X.",
"6.V             A 6.4. .E ` 2.6.6.*.z , 6 L ,.;.9           = +.",
"6.~ .           h 3.6.6.6.6.6.6.6.6.<.@.*.5.6.O.O           9 ;.",
"6.*.9           d 2.6.6.6.6.2.:.<.6.6.6.6.6.6.^             M 5.",
"6.6.U O         M 6.6.6.,.Q k e i I =.6.6.6.6.~           -  .6.",
"6.6.,.M O     $ _ 6.6.-.c @       . i  .6.6.6.O.$       O D 2.6.",
"6.6.6.,.L t e P 2.6.;.x o             6 ' 5.6.<.c X   @ M :.6.6.",
"6.6.6.6.5.,.:.4.6.*.k X                 2 ( 4.6.-.J n Q ,.6.6.6.",
"6.6.6.6.6.6.6.6.X.s .                     ; I ,.6.6.4.6.6.6.6.6.",
"6.6.6.6.6.6.6.X.q                           # c ;.6.6.6.6.6.6.6.",
"6.6.6.6.6.6.*.i                               X V 3.6.6.6.6.6.6.",
"6.6.6.6.6.6.I .                                 - +.6.6.6.6.6.6.",
"6.6.6.6.6.2.h                                   X W 6.6.6.6.6.6.",
"6.6.6.6.6.<.g                                   X E 6.6.6.6.6.6.",
"6.6.6.6.6.5.C                                   % X.6.6.6.6.6.6.",
"6.6.6.6.6.6. .;                                 h ,.6.6.6.6.6.6.",
"6.6.6.6.6.6.4.T *         X 5 h t -           q X.6.6.6.6.6.6.6.",
"6.6.6.6.6.6.6.2./ f < = 9 H %.2.,. .C 0 4 9 V @.6.6.6.6.6.6.6.6.",
"6.6.6.6.6.6.6.6.6.,.@.X.-.5.6.6.6.6.5.:.*.;.4.6.6.6.6.6.6.6.6.6.",
"6.6.6.6.6.6.6.6.6.6.6.6.6.6.6.6.6.6.6.6.6.6.6.6.6.6.6.6.6.6.6.6."
};
